<svg width="1440" height="773" viewBox="0 0 1440 773" fill="none" xmlns="http://www.w3.org/2000/svg">
<g clip-path="url(#clip0_214_17)">
<path d="M1441.4 0.301514L10.1333 146.94V634.127L1441.25 759.128L1441.4 0.301514Z" fill="#E9ECEF"/>
<path d="M-5.99927 22.1653L1442 164.506V636.841L-5.8485 773L-5.99927 22.1653Z" fill="#009BA9"/>
<path d="M-5.99927 0.301514L1442 142.643V614.977L-5.8485 751.136L-5.99927 0.301514Z" fill="#0C1157"/>
<mask id="mask0_214_17" style="mask-type:alpha" maskUnits="userSpaceOnUse" x="-6" y="0" width="1449" height="752">
<path d="M-5.99902 0.301514L1442 142.643V614.977L-5.84825 751.136L-5.99902 0.301514Z" fill="#090D48"/>
</mask>
<g mask="url(#mask0_214_17)">
<path d="M-50.6553 639.165L-29.472 637.129C-28.1905 644.216 -25.6274 649.494 -21.7073 652.811C-17.7873 656.128 -12.5103 657.787 -5.95182 657.787C1.05901 657.787 6.33598 656.279 9.87909 653.339C13.4222 650.399 15.2314 646.93 15.2314 642.935C15.2314 640.371 14.4776 638.185 12.9699 636.451C11.4622 634.642 8.82369 633.134 5.12981 631.777C2.56672 630.872 -3.23795 629.289 -12.2842 627.027C-23.9689 624.162 -32.1859 620.543 -36.8598 616.321C-43.4937 610.365 -46.8106 603.128 -46.8106 594.608C-46.8106 589.105 -45.2275 583.978 -42.1367 579.153C-39.0459 574.403 -34.5228 570.709 -28.6428 568.221C-22.7627 565.733 -15.6765 564.451 -7.38414 564.451C6.18521 564.451 16.3622 567.392 23.2223 573.348C30.0823 579.304 33.7008 587.22 34.0024 597.096L12.216 598.076C11.3114 592.497 9.276 588.577 6.18521 586.089C3.09441 583.676 -1.50409 582.47 -7.61029 582.47C-13.9427 582.47 -18.9181 583.752 -22.4612 586.39C-24.7981 588.049 -25.9289 590.311 -25.9289 593.1C-25.9289 595.664 -24.8735 597.85 -22.6873 599.659C-19.9735 601.997 -13.2642 604.409 -2.63487 606.897C7.99445 609.385 15.8345 612.024 20.8853 614.662C25.9361 617.301 29.9316 620.996 32.7962 625.67C35.6608 630.344 37.0932 636.074 37.0932 642.859C37.0932 649.042 35.3593 654.847 31.967 660.2C28.4992 665.628 23.6746 669.624 17.4176 672.262C11.1606 674.901 3.32057 676.183 -6.10259 676.183C-19.7473 676.183 -30.2259 673.016 -37.5382 666.759C-44.8506 660.426 -49.223 651.228 -50.6553 639.165Z" fill="#111987"/>
<path d="M96.7982 649.418L117.378 652.887C114.74 660.426 110.518 666.231 104.789 670.151C99.0598 674.072 91.8982 676.107 83.3043 676.107C69.7349 676.107 59.6333 671.659 53.1502 662.763C48.024 655.676 45.3855 646.629 45.3855 635.848C45.3855 622.88 48.7778 612.778 55.5625 605.389C62.3472 598.076 70.8657 594.382 81.2689 594.382C92.8782 594.382 102.075 598.227 108.784 605.917C115.494 613.607 118.735 625.368 118.434 641.201H66.5688C66.7195 647.307 68.378 652.133 71.5442 655.525C74.7104 658.918 78.7058 660.652 83.4551 660.652C86.6966 660.652 89.4105 659.747 91.5967 658.013C93.7828 656.279 95.6675 653.339 96.7982 649.418ZM98.0044 628.535C97.8536 622.579 96.3459 617.98 93.3305 614.889C90.3905 611.797 86.772 610.214 82.5504 610.214C78.0273 610.214 74.3334 611.873 71.3934 615.115C68.4534 618.432 67.0211 622.88 67.0211 628.535H98.0044Z" fill="#111987"/>
<path d="M126.802 634.114C126.802 627.253 128.46 620.618 131.852 614.135C135.245 607.726 140.069 602.826 146.251 599.433C152.432 596.04 159.368 594.382 167.057 594.382C178.893 594.382 188.542 598.227 196.156 605.917C203.694 613.607 207.464 623.333 207.464 635.018C207.464 646.855 203.619 656.656 196.005 664.421C188.391 672.187 178.742 676.107 167.208 676.107C160.046 676.107 153.186 674.524 146.703 671.282C140.22 668.04 135.245 663.291 131.852 657.033C128.46 650.776 126.802 643.085 126.802 634.114ZM148.06 635.169C148.06 642.935 149.869 648.891 153.563 652.962C157.257 657.033 161.78 659.144 167.208 659.144C172.636 659.144 177.159 657.108 180.777 652.962C184.396 648.815 186.28 642.859 186.28 635.018C186.28 627.328 184.471 621.448 180.777 617.377C177.083 613.23 172.56 611.194 167.208 611.194C161.78 611.194 157.257 613.23 153.563 617.377C149.869 621.523 148.06 627.479 148.06 635.169Z" fill="#111987"/>
<path d="M218.395 596.116H237.467V606.822C244.252 598.528 252.394 594.382 261.817 594.382C266.792 594.382 271.164 595.437 274.858 597.473C278.552 599.509 281.568 602.675 283.905 606.822C287.372 602.675 291.066 599.509 294.986 597.473C298.906 595.437 303.203 594.382 307.726 594.382C313.456 594.382 318.356 595.513 322.276 597.85C326.271 600.187 329.211 603.58 331.171 608.103C332.603 611.421 333.282 616.849 333.282 624.313V674.298H312.626V629.59C312.626 621.825 311.948 616.849 310.516 614.587C308.631 611.647 305.691 610.139 301.695 610.139C298.831 610.139 296.042 611.044 293.554 612.778C290.991 614.512 289.182 617.15 288.051 620.543C286.92 623.936 286.392 629.364 286.392 636.677V674.222H265.737V631.4C265.737 623.785 265.36 618.884 264.606 616.698C263.852 614.512 262.721 612.853 261.214 611.798C259.63 610.742 257.595 610.214 254.957 610.214C251.79 610.214 248.926 611.044 246.363 612.778C243.8 614.512 241.99 617 240.86 620.242C239.729 623.483 239.201 628.836 239.201 636.375V674.373H218.546V596.116H218.395Z" fill="#111987"/>
<path d="M401.656 674.298V662.612C398.792 666.759 395.098 670.076 390.424 672.489C385.75 674.901 380.925 676.107 375.724 676.107C370.447 676.107 365.773 674.977 361.551 672.639C357.405 670.302 354.39 667.06 352.505 662.914C350.62 658.767 349.716 652.962 349.716 645.649V596.191H370.371V632.154C370.371 643.161 370.748 649.871 371.502 652.359C372.256 654.847 373.613 656.807 375.648 658.239C377.684 659.672 380.247 660.426 383.338 660.426C386.881 660.426 390.047 659.446 392.836 657.485C395.625 655.525 397.585 653.113 398.565 650.248C399.545 647.383 400.149 640.371 400.149 629.138V596.116H420.804V674.298H401.656Z" fill="#111987"/>
<path d="M509.683 674.298H488.952V634.415C488.952 625.971 488.5 620.543 487.595 618.055C486.691 615.567 485.259 613.682 483.299 612.25C481.339 610.893 478.926 610.214 476.137 610.214C472.518 610.214 469.352 611.194 466.488 613.155C463.623 615.115 461.663 617.754 460.608 620.995C459.552 624.237 459.024 630.193 459.024 638.939V674.373H438.369V596.191H457.592V607.651C464.377 598.83 472.971 594.382 483.374 594.382C487.972 594.382 492.119 595.211 495.888 596.87C499.657 598.528 502.522 600.639 504.482 603.127C506.442 605.691 507.799 608.556 508.553 611.798C509.306 615.039 509.683 619.638 509.683 625.745V674.298Z" fill="#111987"/>
<path d="M565.393 674.298V566.336H586.576L630.752 638.411V566.336H651.031V674.298H629.169L585.672 603.881V674.298H565.393Z" fill="#111987"/>
<path d="M670.103 585.486V566.336H690.759V585.486H670.103ZM670.103 674.298V596.116H690.759V674.298H670.103Z" fill="#111987"/>
<path d="M706.288 679.425L729.884 682.29C730.261 685.004 731.165 686.964 732.598 687.944C734.558 689.452 737.648 690.13 741.87 690.13C747.298 690.13 751.293 689.301 754.007 687.718C755.816 686.662 757.173 684.928 758.153 682.516C758.756 680.782 759.133 677.615 759.133 673.016V661.632C752.952 670.076 745.111 674.298 735.688 674.298C725.21 674.298 716.842 669.85 710.736 660.954C705.911 653.942 703.499 645.196 703.499 634.717C703.499 621.599 706.665 611.571 712.922 604.711C719.254 597.774 727.094 594.306 736.442 594.306C746.091 594.306 754.082 598.528 760.339 607.048V596.04H779.713V666.231C779.713 675.429 778.959 682.365 777.452 686.889C775.944 691.487 773.758 695.031 771.044 697.67C768.33 700.308 764.636 702.344 760.038 703.777C755.439 705.284 749.635 705.963 742.624 705.963C729.356 705.963 720.008 703.701 714.43 699.178C708.851 694.654 706.137 688.849 706.137 681.913C706.213 681.234 706.288 680.405 706.288 679.425ZM724.757 633.586C724.757 641.879 726.341 647.986 729.582 651.831C732.824 655.676 736.744 657.636 741.493 657.636C746.544 657.636 750.841 655.676 754.309 651.68C757.776 647.76 759.51 641.879 759.51 634.114C759.51 626.047 757.852 620.015 754.535 616.095C751.218 612.175 746.996 610.214 741.87 610.214C736.894 610.214 732.824 612.174 729.582 616.019C726.416 619.789 724.757 625.67 724.757 633.586Z" fill="#111987"/>
<path d="M817.18 566.336V605.992C823.889 598.152 831.805 594.306 841.077 594.306C845.826 594.306 850.123 595.211 853.968 596.945C857.813 598.679 860.677 600.941 862.637 603.731C864.597 606.445 865.879 609.536 866.633 612.853C867.311 616.17 867.688 621.373 867.688 628.384V674.223H847.032V632.908C847.032 624.69 846.656 619.488 845.826 617.301C845.072 615.115 843.64 613.305 841.68 612.024C839.72 610.742 837.232 610.064 834.217 610.064C830.749 610.064 827.734 610.893 825.02 612.552C822.306 614.21 820.346 616.774 819.065 620.091C817.783 623.484 817.18 628.459 817.18 635.018V674.223H796.524V566.26H817.18V566.336Z" fill="#111987"/>
<path d="M920.759 596.116V612.627H906.587V644.141C906.587 650.549 906.737 654.244 906.964 655.299C907.265 656.355 907.868 657.259 908.773 657.938C909.753 658.616 910.884 658.993 912.241 658.993C914.125 658.993 916.914 658.315 920.533 657.033L922.267 673.092C917.442 675.127 912.014 676.183 905.908 676.183C902.214 676.183 898.822 675.58 895.807 674.298C892.791 673.016 890.605 671.433 889.248 669.473C887.891 667.513 886.911 664.798 886.308 661.406C885.856 658.993 885.63 654.168 885.63 646.855V612.778H876.131V596.267H885.63V580.736L906.361 568.673V596.267H920.759V596.116Z" fill="#111987"/>
<path d="M969.307 674.298V566.336H1001.95L1021.55 639.994L1040.92 566.336H1073.64V674.298H1053.36V589.331L1031.95 674.298H1011L989.661 589.331V674.298H969.307Z" fill="#111987"/>
<path d="M1106.73 619.94L1087.96 616.547C1090.07 609.008 1093.69 603.429 1098.89 599.735C1104.02 596.116 1111.71 594.306 1121.89 594.306C1131.08 594.306 1138.02 595.362 1142.47 597.548C1146.99 599.735 1150.16 602.524 1151.97 605.841C1153.77 609.234 1154.75 615.341 1154.75 624.388L1154.53 648.514C1154.53 655.374 1154.83 660.426 1155.51 663.743C1156.19 666.985 1157.39 670.528 1159.2 674.223H1138.77C1138.25 672.865 1137.57 670.83 1136.81 668.116C1136.44 666.91 1136.21 666.08 1136.06 665.703C1132.52 669.171 1128.75 671.735 1124.75 673.469C1120.76 675.203 1116.46 676.032 1111.86 676.032C1103.79 676.032 1097.46 673.846 1092.86 669.473C1088.19 665.1 1085.93 659.597 1085.93 652.887C1085.93 648.438 1086.98 644.518 1089.09 641.05C1091.21 637.582 1094.15 634.943 1097.99 633.134C1101.76 631.324 1107.26 629.666 1114.42 628.309C1124.07 626.499 1130.78 624.765 1134.55 623.257V621.222C1134.55 617.226 1133.57 614.436 1131.61 612.702C1129.65 611.044 1125.96 610.139 1120.53 610.139C1116.84 610.139 1113.97 610.893 1111.94 612.325C1109.67 613.758 1108.02 616.321 1106.73 619.94ZM1134.4 636.752C1131.76 637.657 1127.54 638.713 1121.81 639.919C1116.08 641.125 1112.31 642.331 1110.58 643.538C1107.87 645.423 1106.51 647.911 1106.51 650.851C1106.51 653.716 1107.56 656.279 1109.75 658.39C1111.94 660.501 1114.65 661.557 1117.97 661.557C1121.66 661.557 1125.28 660.35 1128.67 657.862C1131.16 655.978 1132.82 653.716 1133.57 651.002C1134.1 649.268 1134.4 645.875 1134.4 640.899V636.752Z" fill="#111987"/>
<path d="M1191.17 674.298H1170.44V596.116H1189.66V607.199C1192.98 601.921 1195.92 598.453 1198.55 596.794C1201.19 595.136 1204.13 594.306 1207.52 594.306C1212.27 594.306 1216.8 595.588 1221.17 598.227L1214.76 616.246C1211.29 613.984 1208.05 612.853 1205.04 612.853C1202.17 612.853 1199.68 613.682 1197.65 615.266C1195.61 616.849 1194.03 619.714 1192.9 623.936C1191.77 628.082 1191.17 636.828 1191.17 650.172V674.298Z" fill="#111987"/>
<path d="M1225.54 674.298V566.336H1246.2V623.634L1270.4 596.116H1295.88L1269.19 624.69L1297.84 674.298H1275.52L1255.85 639.165L1246.2 649.268V674.298H1225.54Z" fill="#111987"/>
<path d="M1351.59 649.418L1372.17 652.887C1369.53 660.426 1365.31 666.231 1359.58 670.151C1353.85 674.072 1346.69 676.107 1338.09 676.107C1324.52 676.107 1314.42 671.659 1307.94 662.763C1302.81 655.676 1300.17 646.629 1300.17 635.848C1300.17 622.88 1303.57 612.778 1310.35 605.389C1317.14 598.076 1325.65 594.382 1336.06 594.382C1347.67 594.382 1356.86 598.227 1363.57 605.917C1370.28 613.607 1373.52 625.368 1373.22 641.201H1321.36C1321.51 647.307 1323.17 652.133 1326.33 655.525C1329.5 658.918 1333.49 660.652 1338.24 660.652C1341.48 660.652 1344.2 659.747 1346.38 658.013C1348.57 656.279 1350.46 653.339 1351.59 649.418ZM1352.79 628.535C1352.64 622.579 1351.13 617.98 1348.12 614.889C1345.18 611.797 1341.56 610.214 1337.34 610.214C1332.82 610.214 1329.12 611.873 1326.18 615.115C1323.24 618.432 1321.81 622.88 1321.81 628.535H1352.79Z" fill="#111987"/>
<path d="M1422.3 596.116V612.627H1408.13V644.141C1408.13 650.549 1408.28 654.244 1408.5 655.299C1408.8 656.355 1409.41 657.259 1410.31 657.938C1411.29 658.616 1412.42 658.993 1413.78 658.993C1415.66 658.993 1418.45 658.315 1422.07 657.033L1423.81 673.092C1418.98 675.127 1413.55 676.183 1407.45 676.183C1403.75 676.183 1400.36 675.58 1397.34 674.298C1394.33 673.016 1392.14 671.433 1390.79 669.473C1389.43 667.513 1388.45 664.798 1387.85 661.406C1387.39 658.993 1387.17 654.168 1387.17 646.855V612.778H1377.67V596.267H1387.17V580.736L1407.9 568.673V596.267H1422.3V596.116Z" fill="#111987"/>
</g>
</g>
<defs>
<clipPath id="clip0_214_17">
<rect width="1448" height="773" fill="white" transform="translate(-6)"/>
</clipPath>
</defs>
</svg>
